<?xml version="1.0" encoding="UTF-8"?>
<svg version="1.1" xmlns="http://www.w3.org/2000/svg" width="323" height="287">
<path d="M0 0 C106.59 0 213.18 0 323 0 C323 94.71 323 189.42 323 287 C216.41 287 109.82 287 0 287 C0 192.29 0 97.58 0 0 Z " fill="#FEFEFE" transform="translate(0,0)"/>
<path d="M0 0 C1.01296143 0.00491455 2.02592285 0.0098291 3.06958008 0.01489258 C10.29301267 0.12816715 16.80907717 0.77941823 23.625 3.3125 C24.61242187 3.66441406 25.59984375 4.01632813 26.6171875 4.37890625 C46.84356511 12.17609762 61.82385284 26.72025791 70.859375 46.2578125 C79.53444205 65.86420077 78.76375797 87.33644458 71.28613281 107.25561523 C68.40292063 114.39487649 64.37392912 120.26618303 59.625 126.3125 C58.99851563 127.13363281 58.37203125 127.95476562 57.7265625 128.80078125 C46.53961872 142.46584549 27.97502103 151.9334497 10.625 154.3125 C-10.37080013 156.10248223 -30.70147948 152.56087168 -47.45703125 138.94921875 C-48.08996094 138.40910156 -48.72289063 137.86898437 -49.375 137.3125 C-50.16261719 136.67957031 -50.95023438 136.04664063 -51.76171875 135.39453125 C-65.46854516 123.8707216 -75.65768541 106.32385895 -77.375 88.3125 C-78.23825222 73.86901144 -78.13049476 60.71153541 -72.375 47.3125 C-71.70597656 45.70375 -71.70597656 45.70375 -71.0234375 44.0625 C-67.58271137 36.52750199 -62.89276249 30.44756811 -57.375 24.3125 C-56.76011719 23.60351562 -56.14523438 22.89453125 -55.51171875 22.1640625 C-41.19930343 6.65639193 -20.69534618 -0.11910742 0 0 Z " fill="#D22C3C" transform="translate(165.375,10.6875)"/>
<path d="M0 0 C0.99 -0.03287109 0.99 -0.03287109 2 -0.06640625 C5.22530072 0.94779964 6.26539877 2.72337151 8 5.5625 C8.50390625 9.05078125 8.50390625 9.05078125 8.5625 12.875 C8.76751913 18.69118056 9.3349029 23.33480953 12 28.5625 C15.71259599 31.037564 17.32569391 30.81898868 21.59765625 30.23046875 C26.5806103 28.84496445 30.14463711 25.30386814 33.84375 21.83203125 C36.66128001 19.23075902 38.31324525 17.71358604 42.125 16.875 C46.12230474 17.83087722 47.64683443 19.21102177 50 22.5625 C50.27205086 26.23518661 49.96474037 28.4309827 47.53125 31.28515625 C46.31823029 32.45295373 45.09233643 33.6074913 43.85546875 34.75 C39.79121286 38.72013628 36.75978884 43.02204392 36.4375 48.8125 C36.70597644 52.52751772 36.70597644 52.52751772 38.6875 54.9375 C44.20404623 58.81399195 49.59375535 58.90498159 56.1171875 58.953125 C59.71436464 59.07529328 61.87386678 59.48505852 64.96484375 61.3828125 C67 63.5625 67 63.5625 67.5625 67.0625 C66.92519445 71.02795673 66.1376325 72.16313397 63 74.5625 C60.01568726 76.05465637 57.13245366 75.79985138 53.8125 75.9375 C47.26376921 76.28642371 41.83193969 76.73056031 37 81.5625 C36.38481411 87.61182794 37.19164853 91.67235594 41 96.5625 C42.74729457 98.4421064 44.5391521 100.23227533 46.4140625 101.984375 C48 103.5625 48 103.5625 50 106.5625 C49.8610278 110.38423548 49.47005406 112.8393399 47.375 116.0625 C45 117.5625 45 117.5625 41.70703125 117.46484375 C37.28908234 116.3894526 35.5123936 114.80663458 32.3125 111.625 C26.37461053 105.77925118 26.37461053 105.77925118 18.5 104.125 C14.88281152 104.19639188 14.28296392 104.30075837 11.5 106.875 C8.54627615 112.16708856 8.7561604 117.32750514 8.74609375 123.2265625 C8.60590124 127.44709498 8.34192847 129.12773003 5.640625 132.5625 C3 134.5625 3 134.5625 0 135.1875 C-4.16130475 134.32056151 -5.40856618 132.92965907 -8 129.5625 C-8.96140342 125.38871495 -8.94538687 121.13262754 -9.09375 116.8671875 C-9.36206908 112.37284296 -9.54482618 110.16507071 -12.328125 106.48046875 C-15.22952422 104.39773919 -17.24139085 103.77291367 -20.828125 104.015625 C-27.70734638 105.74780304 -33.16854596 111.39555178 -38.078125 116.2421875 C-40.55192841 117.94167033 -42.05517706 117.87801674 -45 117.5625 C-47.25 116.5625 -47.25 116.5625 -49 114.5625 C-50.53757225 109.78793353 -50.53757225 109.78793353 -50 106.5625 C-48.03547058 103.53217016 -45.54073641 101.11356461 -43 98.5625 C-39.10434251 94.17496656 -37.21039831 90.51365312 -36.8671875 84.578125 C-36.88833552 82.42171528 -36.88833552 82.42171528 -38.125 80.125 C-43.34908532 75.77159557 -49.32189673 76.23195983 -55.76171875 76.25976562 C-59.93568751 76.14525852 -61.57737309 75.88980167 -64.99609375 73.2421875 C-67 70.5625 -67 70.5625 -67.5625 67 C-66.89626284 62.92855068 -66.27188213 61.99423377 -63 59.5625 C-60.3060586 59.18639779 -57.94150746 59.01088043 -55.25 59 C-49.25614873 58.79786132 -44.33906478 58.44559498 -39 55.5625 C-37.03565027 53.27075865 -36.98126421 51.47069464 -36.375 48.5 C-37.50304548 41.39331348 -42.69291627 35.47590453 -48 30.75 C-50 28.5625 -50 28.5625 -50.625 25.5625 C-49.76814736 21.44960733 -48.42264067 19.96563068 -45 17.5625 C-41.21472287 17.27681871 -39.02415903 17.81145005 -35.94921875 20.06640625 C-33.90897131 21.84537906 -31.95044002 23.68597139 -30 25.5625 C-26.11052237 28.84694778 -23.74242597 30.33662997 -18.625 31 C-14.78146514 30.90369426 -14.78146514 30.90369426 -12.125 27.8125 C-8.50050679 22.26915744 -8.74598164 16.86674837 -8.65820312 10.40625 C-8.52060898 6.97599606 -8.24830432 4.90385081 -6.20703125 2.09765625 C-3.8895585 0.48567963 -2.78810045 -0.00544551 0 0 Z " fill="#D22D3C" transform="translate(165,20.4375)"/>
<path d="M0 0 C0.99 -0.03287109 0.99 -0.03287109 2 -0.06640625 C5.22530072 0.94779964 6.26539877 2.72337151 8 5.5625 C8.50390625 9.05078125 8.50390625 9.05078125 8.5625 12.875 C8.76751913 18.69118056 9.3349029 23.33480953 12 28.5625 C15.71259599 31.037564 17.32569391 30.81898868 21.59765625 30.23046875 C26.5806103 28.84496445 30.14463711 25.30386814 33.84375 21.83203125 C36.66128001 19.23075902 38.31324525 17.71358604 42.125 16.875 C46.12230474 17.83087722 47.64683443 19.21102177 50 22.5625 C50.27205086 26.23518661 49.96474037 28.4309827 47.53125 31.28515625 C46.31823029 32.45295373 45.09233643 33.6074913 43.85546875 34.75 C39.79121286 38.72013628 36.75978884 43.02204392 36.4375 48.8125 C36.70597644 52.52751772 36.70597644 52.52751772 38.6875 54.9375 C44.20404623 58.81399195 49.59375535 58.90498159 56.1171875 58.953125 C59.71436464 59.07529328 61.87386678 59.48505852 64.96484375 61.3828125 C67 63.5625 67 63.5625 67.5625 67.0625 C66.92519445 71.02795673 66.1376325 72.16313397 63 74.5625 C60.01568726 76.05465637 57.13245366 75.79985138 53.8125 75.9375 C47.26376921 76.28642371 41.83193969 76.73056031 37 81.5625 C36.38481411 87.61182794 37.19164853 91.67235594 41 96.5625 C42.74729457 98.4421064 44.5391521 100.23227533 46.4140625 101.984375 C48 103.5625 48 103.5625 50 106.5625 C49.8610278 110.38423548 49.47005406 112.8393399 47.375 116.0625 C45 117.5625 45 117.5625 41.70703125 117.46484375 C37.28908234 116.3894526 35.5123936 114.80663458 32.3125 111.625 C26.37461053 105.77925118 26.37461053 105.77925118 18.5 104.125 C14.88281152 104.19639188 14.28296392 104.30075837 11.5 106.875 C8.54627615 112.16708856 8.7561604 117.32750514 8.74609375 123.2265625 C8.60590124 127.44709498 8.34192847 129.12773003 5.640625 132.5625 C3 134.5625 3 134.5625 0 135.1875 C-4.16130475 134.32056151 -5.40856618 132.92965907 -8 129.5625 C-8.96140342 125.38871495 -8.94538687 121.13262754 -9.09375 116.8671875 C-9.36206908 112.37284296 -9.54482618 110.16507071 -12.328125 106.48046875 C-15.22952422 104.39773919 -17.24139085 103.77291367 -20.828125 104.015625 C-27.70734638 105.74780304 -33.16854596 111.39555178 -38.078125 116.2421875 C-40.55192841 117.94167033 -42.05517706 117.87801674 -45 117.5625 C-47.25 116.5625 -47.25 116.5625 -49 114.5625 C-50.53757225 109.78793353 -50.53757225 109.78793353 -50 106.5625 C-48.03547058 103.53217016 -45.54073641 101.11356461 -43 98.5625 C-39.10434251 94.17496656 -37.21039831 90.51365312 -36.8671875 84.578125 C-36.88833552 82.42171528 -36.88833552 82.42171528 -38.125 80.125 C-43.34908532 75.77159557 -49.32189673 76.23195983 -55.76171875 76.25976562 C-59.93568751 76.14525852 -61.57737309 75.88980167 -64.99609375 73.2421875 C-67 70.5625 -67 70.5625 -67.5625 67 C-66.89626284 62.92855068 -66.27188213 61.99423377 -63 59.5625 C-60.3060586 59.18639779 -57.94150746 59.01088043 -55.25 59 C-49.25614873 58.79786132 -44.33906478 58.44559498 -39 55.5625 C-37.03565027 53.27075865 -36.98126421 51.47069464 -36.375 48.5 C-37.50304548 41.39331348 -42.69291627 35.47590453 -48 30.75 C-50 28.5625 -50 28.5625 -50.625 25.5625 C-49.76814736 21.44960733 -48.42264067 19.96563068 -45 17.5625 C-41.21472287 17.27681871 -39.02415903 17.81145005 -35.94921875 20.06640625 C-33.90897131 21.84537906 -31.95044002 23.68597139 -30 25.5625 C-26.11052237 28.84694778 -23.74242597 30.33662997 -18.625 31 C-14.78146514 30.90369426 -14.78146514 30.90369426 -12.125 27.8125 C-8.50050679 22.26915744 -8.74598164 16.86674837 -8.65820312 10.40625 C-8.52060898 6.97599606 -8.24830432 4.90385081 -6.20703125 2.09765625 C-3.8895585 0.48567963 -2.78810045 -0.00544551 0 0 Z M-2 5.5625 C-3.76982977 7.33232977 -3.2136276 10.03631319 -3.3125 12.4375 C-3.82663256 19.73978903 -5.02039942 27.12909252 -9.94921875 32.80859375 C-12.93060368 35.35838772 -15.94600457 36.03481348 -19.84375 35.96875 C-27.51920837 34.52264915 -33.40966039 29.43269846 -38.49609375 23.84375 C-40.04355213 22.23792461 -40.04355213 22.23792461 -42.9375 22.625 C-43.9584375 23.0890625 -43.9584375 23.0890625 -45 23.5625 C-44.49404659 27.8744313 -43.2077572 29.80991524 -40.1875 32.875 C-35.49365499 37.95648751 -32.38780679 42.29384277 -31.5625 49.25 C-32.15435419 53.73118176 -33.52925588 56.23883029 -36.875 59.25 C-41.99430499 62.41192367 -46.94162342 63.08712536 -52.8125 63.6875 C-53.60076172 63.77386719 -54.38902344 63.86023438 -55.20117188 63.94921875 C-57.13343084 64.16001064 -59.06663263 64.36212896 -61 64.5625 C-61.38218767 66.21864657 -61.71395102 67.88707024 -62 69.5625 C-60.14605743 71.41644257 -56.98961161 70.82578666 -54.5 70.9375 C-46.92156535 71.44632674 -40.82569996 72.09001254 -35 77.1875 C-34.34 77.97125 -33.68 78.755 -33 79.5625 C-32.505 80.0575 -32.505 80.0575 -32 80.5625 C-30.88072439 87.72586391 -32.81730515 92.80386088 -37 98.5625 C-39.11547843 100.95106747 -41.26520765 103.26540727 -43.5234375 105.51953125 C-45.27284123 107.45315505 -45.27284123 107.45315505 -44.7265625 109.82421875 C-44.16747645 111.73550397 -44.16747645 111.73550397 -42.23828125 112.29296875 C-41.13033203 112.42638672 -41.13033203 112.42638672 -40 112.5625 C-37.99473321 111.0523031 -37.99473321 111.0523031 -36.1875 108.875 C-30.74357987 103.07626199 -25.5750711 99.89523244 -17.5625 99.3125 C-13.5792838 99.59202394 -12.00787955 99.96109066 -9 102.5625 C-5.35360964 108.1217923 -4.260723 113.52950164 -3.75 120.0625 C-3.67265625 120.88492188 -3.5953125 121.70734375 -3.515625 122.5546875 C-3.32945515 124.55601337 -3.16266705 126.55912687 -3 128.5625 C-1.34385343 128.94468767 0.32457024 129.27645102 2 129.5625 C3.89954017 127.66295983 3.22397748 124.15674403 3.3125 121.625 C3.72984871 113.72451371 5.07532066 107.17533919 10.125 100.9375 C14.51761137 98.83668587 18.23002591 98.65426365 23 99.5625 C29.28912265 102.21104421 34.05353067 106.16102499 38.4296875 111.33984375 C39.20699219 111.94505859 39.20699219 111.94505859 40 112.5625 C42.16924852 112.34125571 42.16924852 112.34125571 44 111.5625 C44.79143516 109.74428665 44.79143516 109.74428665 45 107.5625 C43.72219316 105.7521477 43.72219316 105.7521477 41.8125 104.1875 C35.85244548 98.6192419 32.09166183 92.79102519 31.625 84.5 C32.06389961 79.89155406 32.50324787 78.55971611 36 75.5625 C43.84069238 70.94849414 52.13942363 70.79878204 61 70.5625 C61.38218767 68.90635343 61.71395102 67.23792976 62 65.5625 C60.23017023 63.79267023 57.52618681 64.3488724 55.125 64.25 C46.66141442 63.65410399 38.79509797 62.13199859 33 55.5625 C31.21947517 52.00145034 31.38562006 48.44372715 32 44.5625 C34.72677964 38.24221432 38.94032986 33.17830672 43.77734375 28.3515625 C45.26096535 26.61092746 45.26096535 26.61092746 44.69140625 24.3359375 C44.46324219 23.75070313 44.23507813 23.16546875 44 22.5625 C39.69052399 23.06728128 37.79259625 24.33803819 34.75 27.375 C29.4218875 32.30483167 24.50655381 35.15340206 17.25 36 C13.49973225 35.49515626 11.83401843 35.09013806 9 32.5625 C5.38363718 26.13341053 3.94918076 20.12222507 3.4375 12.8125 C3.35371094 11.64203125 3.26992187 10.4715625 3.18359375 9.265625 C3.12300781 8.37359375 3.06242187 7.4815625 3 6.5625 C1.34385343 6.18031233 -0.32457024 5.84854898 -2 5.5625 Z " fill="#FBF2F2" transform="translate(165,20.4375)"/>
<path d="M0 0 C5.91637819 3.61063765 9.91871284 8.83173288 12.02734375 15.41015625 C13.76153661 22.84855372 12.02815006 28.8150824 8.5 35.4375 C6 38.375 6 38.375 3.5 40.4375 C2.860625 40.994375 2.22125 41.55125 1.5625 42.125 C-4.32136126 45.86927535 -10.70883856 46.33010523 -17.5 45.4375 C-24.01447652 43.2875382 -28.82273269 40.23198183 -32.5 34.4375 C-35.6937993 27.45268691 -36.77845095 20.81425293 -34.375 13.375 C-31.69981908 7.0416647 -27.31397899 1.91640221 -20.96875 -0.90234375 C-14.28069099 -2.69076459 -6.40468071 -2.84515624 0 0 Z " fill="#29275C" transform="translate(172.5,177.5625)"/>
<path d="M0 0 C4.93283329 2.95804744 8.13280225 7.10426029 10.76953125 12.1484375 C12.03927951 19.48476081 12.62351867 26.96936845 8.73046875 33.58203125 C4.75274965 38.74862171 -0.11049823 43.26349068 -6.66796875 44.3984375 C-14.34691954 45.30250002 -19.98937324 44.70902721 -26.46875 40.31640625 C-32.14299471 35.36781983 -35.33224786 29.6788789 -35.91796875 22.2109375 C-35.34574281 13.48449189 -32.2210199 7.22775811 -25.66796875 1.3984375 C-17.72376607 -4.45258315 -8.74905591 -3.88540751 0 0 Z " fill="#FEFCFC" transform="translate(176.66796875,66.6015625)"/>
<path d="M0 0 C5.36779284 3.62713336 8.98884306 8.12619035 10.30078125 14.5546875 C10.86743576 21.46787255 10.04730079 27.8855645 5.7890625 33.57421875 C0.44142258 39.28237372 -4.78762076 41.67664587 -12.63671875 41.9921875 C-19.16051511 41.79671795 -23.63463778 40.37984808 -28.44921875 35.94140625 C-34.13798801 29.77401458 -35.23790795 23.789742 -35.07421875 15.5234375 C-34.20133844 8.61313503 -29.74928395 3.9397391 -24.4453125 -0.2578125 C-16.57082701 -5.61316728 -7.92569465 -4.3634462 0 0 Z " fill="#275A89" transform="translate(266.69921875,236.4453125)"/>
<path d="M0 0 C6.496875 -0.12375 6.496875 -0.12375 13.125 -0.25 C15.15744873 -0.30462402 15.15744873 -0.30462402 17.23095703 -0.36035156 C27.17240668 -0.45219628 27.17240668 -0.45219628 30.7421875 1.765625 C33.53223773 4.52671277 34.76661698 6.30569988 35.30078125 10.18359375 C35.32529374 14.89816252 35.25709654 18.29364876 32 22 C30.35212953 22.71186034 28.68625443 23.38455853 27 24 C27.30292969 24.5347998 27.60585937 25.06959961 27.91796875 25.62060547 C29.28305207 28.03627792 30.6415932 30.45556735 32 32.875 C32.47695312 33.71675781 32.95390625 34.55851562 33.4453125 35.42578125 C33.89648438 36.23144531 34.34765625 37.03710938 34.8125 37.8671875 C35.23144531 38.61081543 35.65039062 39.35444336 36.08203125 40.12060547 C37 42 37 42 37 44 C33.28620176 45.20895985 30.66876574 45.44344881 27 44 C24.3605588 40.71138843 22.51610687 36.9488692 20.75244141 33.13500977 C20.37780762 32.36987061 20.00317383 31.60473145 19.6171875 30.81640625 C19.14708252 29.75595093 19.14708252 29.75595093 18.66748047 28.67407227 C16.4424955 26.09682702 16.4424955 26.09682702 9 26 C9 31.94 9 37.88 9 44 C6.03 44 3.06 44 0 44 C0 29.48 0 14.96 0 0 Z " fill="#275A89" transform="translate(192,234)"/>
<path d="M0 0 C3.46679688 0.04882812 3.46679688 0.04882812 6.93359375 0.09765625 C10.69452627 8.13663635 14.13428282 16.2902119 17.43774414 24.52514648 C18.25579267 26.5592732 19.08389787 28.58913412 19.91210938 30.61914062 C20.4368167 31.92292823 20.96092779 33.22695598 21.484375 34.53125 C21.95528564 35.69712646 22.42619629 36.86300293 22.91137695 38.06420898 C23.93359375 41.09765625 23.93359375 41.09765625 23.93359375 45.09765625 C20.96359375 45.09765625 17.99359375 45.09765625 14.93359375 45.09765625 C14.27359375 42.78765625 13.61359375 40.47765625 12.93359375 38.09765625 C2.53859375 38.59265625 2.53859375 38.59265625 -8.06640625 39.09765625 C-8.72640625 41.07765625 -9.38640625 43.05765625 -10.06640625 45.09765625 C-13.36640625 45.09765625 -16.66640625 45.09765625 -20.06640625 45.09765625 C-18.13910251 39.17958871 -16.0656649 33.37209619 -13.74609375 27.59765625 C-13.44196564 26.83590088 -13.13783752 26.07414551 -12.82449341 25.28930664 C-12.1887898 23.69903623 -11.55180556 22.10927717 -10.91357422 20.52001953 C-9.93327209 18.07738825 -8.95859159 15.63256389 -7.984375 13.1875 C-7.36361342 11.63658576 -6.7425315 10.08579968 -6.12109375 8.53515625 C-5.82943329 7.80296875 -5.53777283 7.07078125 -5.23727417 6.31640625 C-2.74518321 0.12973456 -2.74518321 0.12973456 0 0 Z " fill="#28275C" transform="translate(259.06640625,176.90234375)"/>
<path d="M0 0 C5.41947023 1.08389405 7.32165678 2.78698699 10.95703125 6.56640625 C11.77877083 7.39663551 11.77877083 7.39663551 12.61711121 8.24363708 C14.35854752 10.00740011 16.08553359 11.78457787 17.8125 13.5625 C18.99321296 14.76328265 20.17484384 15.96316348 21.35742188 17.16210938 C24.25088654 20.09618407 27.12439054 23.04799058 30 26 C30.33 17.42 30.66 8.84 31 0 C33.97 0 36.94 0 40 0 C40 14.85 40 29.7 40 45 C35.27707978 43.81926994 33.1945837 41.58001119 29.921875 38.21484375 C29.35043762 37.63916153 28.77900024 37.06347931 28.19024658 36.47035217 C26.36966198 34.63299681 24.55979432 32.78547868 22.75 30.9375 C21.51631747 29.68876862 20.28195022 28.44071331 19.046875 27.19335938 C16.02189062 24.1378812 13.01162092 21.06888414 10 18 C9.67 26.91 9.34 35.82 9 45 C6.03 45 3.06 45 0 45 C0 30.15 0 15.3 0 0 Z " fill="#27255B" transform="translate(192,177)"/>
<path d="M0 0 C2.97 0 5.94 0 9 0 C9 5.94 9 11.88 9 18 C15.93 18 22.86 18 30 18 C30 12.06 30 6.12 30 0 C32.97 0 35.94 0 39 0 C39 14.85 39 29.7 39 45 C36.03 45 33.06 45 30 45 C30 38.73 30 32.46 30 26 C23.4 26 16.8 26 10 26 C10 32.27 10 38.54 10 45 C6.7 45 3.4 45 0 45 C0 30.15 0 15.3 0 0 Z " fill="#2C2A5F" transform="translate(91,177)"/>
<path d="M0 0 C10.89 0 21.78 0 33 0 C33 2.97 33 5.94 33 9 C25.08 9 17.16 9 9 9 C9 11.97 9 14.94 9 18 C14.94 18 20.88 18 27 18 C27 20.97 27 23.94 27 27 C21.06 27 15.12 27 9 27 C9 30.3 9 33.6 9 37 C16.92 37 24.84 37 33 37 C33 39.64 33 42.28 33 45 C22.11 45 11.22 45 0 45 C0 30.15 0 15.3 0 0 Z " fill="#285B8A" transform="translate(57,233)"/>
<path d="M0 0 C2.3203125 1.16796875 2.3203125 1.16796875 4.3203125 4.16796875 C2.1328125 6.73046875 2.1328125 6.73046875 -0.6796875 9.16796875 C-3.5040685 9.03660219 -5.17444011 8.42059244 -7.6796875 7.16796875 C-12.3874575 6.77565458 -14.75048447 6.69460117 -18.9921875 8.85546875 C-21.82094969 11.28951994 -23.36105155 12.67746184 -24.6796875 16.16796875 C-24.82270769 21.40250774 -24.06494509 26.0304317 -20.6796875 30.16796875 C-17.27408139 32.39441284 -14.43680227 32.38007994 -10.4296875 32.29296875 C-8.81320313 32.26589844 -8.81320313 32.26589844 -7.1640625 32.23828125 C-6.34421875 32.21507812 -5.524375 32.191875 -4.6796875 32.16796875 C-4.6796875 29.52796875 -4.6796875 26.88796875 -4.6796875 24.16796875 C-6.6596875 24.16796875 -8.6396875 24.16796875 -10.6796875 24.16796875 C-10.6796875 21.19796875 -10.6796875 18.22796875 -10.6796875 15.16796875 C-5.7296875 15.16796875 -0.7796875 15.16796875 4.3203125 15.16796875 C4.3203125 22.42796875 4.3203125 29.68796875 4.3203125 37.16796875 C-3.4158185 41.78655442 -9.65235394 43.59941295 -18.6796875 42.16796875 C-24.8815973 39.81483256 -29.65328924 35.17173951 -32.6484375 29.25390625 C-35.09255515 23.39255004 -35.51448706 18.19547941 -33.4921875 12.10546875 C-30.44331577 4.86090197 -26.27400893 1.30138737 -19.21875 -1.9140625 C-12.17082141 -4.46215976 -6.75789001 -2.4565589 0 0 Z " fill="#275A8A" transform="translate(130.6796875,235.83203125)"/>
<path d="M0 0 C2.97 0 5.94 0 9 0 C9.00410889 0.88260498 9.00821777 1.76520996 9.01245117 2.67456055 C9.03949984 5.9647604 9.08864951 9.25311398 9.15258789 12.54272461 C9.17571503 13.96350702 9.19015126 15.38445958 9.19555664 16.80541992 C9.20488661 18.85442466 9.24595166 20.9007735 9.29296875 22.94921875 C9.31653442 24.79519653 9.31653442 24.79519653 9.34057617 26.6784668 C10.16988898 30.85573477 11.73680678 32.35325964 15 35 C18.92768519 36.13069725 22.30140659 35.32700117 25.9375 33.625 C28.09702406 32.16078274 28.09702406 32.16078274 29 30 C29.15495763 27.75025839 29.25010928 25.49628464 29.31640625 23.2421875 C29.33718735 22.57913605 29.35796844 21.91608459 29.37937927 21.23294067 C29.44479231 19.11373306 29.50372105 16.994401 29.5625 14.875 C29.60569309 13.43878919 29.64930764 12.00259098 29.69335938 10.56640625 C29.80046499 7.04440406 29.90175575 3.52226175 30 0 C32.97 0 35.94 0 39 0 C39.09927153 4.73219762 39.17165633 9.46378213 39.21972656 14.19677734 C39.23977627 15.80495774 39.26702364 17.41306583 39.30175781 19.02099609 C39.35057264 21.3397002 39.37303428 23.65743625 39.390625 25.9765625 C39.41127014 26.68930328 39.43191528 27.40204407 39.45318604 28.13638306 C39.4554536 33.24195528 38.17463269 36.05381944 35 40 C29.4405404 44.9087631 23.32581566 45.78852729 16.09375 45.484375 C9.86755983 44.50956745 6.37124949 41.75801216 2.5625 36.875 C0.08609811 32.31842053 -0.11862047 29.06201432 -0.09765625 23.92578125 C-0.0962413 23.2419487 -0.09482635 22.55811615 -0.09336853 21.8535614 C-0.08777876 19.67316278 -0.07522822 17.49286749 -0.0625 15.3125 C-0.05748367 13.83268378 -0.052921 12.35286594 -0.04882812 10.87304688 C-0.03781271 7.24866443 -0.02055512 3.6243423 0 0 Z " fill="#275A8A" transform="translate(143,233)"/>
<path d="M0 0 C2.38301865 1.26004747 4.0556867 2.8674183 5.765625 4.93359375 C4.115625 6.58359375 2.465625 8.23359375 0.765625 9.93359375 C0.12625 9.60359375 -0.513125 9.27359375 -1.171875 8.93359375 C-5.56120477 7.50034321 -10.98335271 6.80808261 -15.234375 8.93359375 C-14.904375 10.58359375 -14.574375 12.23359375 -14.234375 13.93359375 C-13.19796875 14.248125 -12.1615625 14.56265625 -11.09375 14.88671875 C-9.72375369 15.31836142 -8.35397314 15.75068935 -6.984375 16.18359375 C-6.30246094 16.38855469 -5.62054688 16.59351563 -4.91796875 16.8046875 C-0.73508753 18.14483391 1.99204804 19.50094899 4.765625 22.93359375 C6.52732099 26.45698573 6.43002995 30.09759534 5.765625 33.93359375 C3.12134487 38.65425491 -0.06884528 41.324535 -5.234375 42.93359375 C-13.83519949 43.99198537 -20.18179182 43.03623791 -27.234375 37.93359375 C-26.54058989 34.67347733 -25.77543509 33.14321122 -23.234375 30.93359375 C-17.484375 32.80859375 -17.484375 32.80859375 -15.234375 33.93359375 C-11.56107536 34.06716828 -8.73584541 34.10075055 -5.234375 32.93359375 C-4.9841593 30.01725246 -4.9841593 30.01725246 -5.234375 26.93359375 C-8.23341665 24.93423265 -9.59848801 24.57770577 -13.046875 24.05859375 C-17.74523037 23.18751181 -20.55512598 21.96897419 -24.234375 18.93359375 C-26.72040289 15.20455191 -26.74310861 12.24935053 -26.234375 7.93359375 C-24.54915918 3.10264172 -21.01023176 1.12818775 -16.6328125 -1.1171875 C-10.87706882 -3.39511212 -5.6002194 -2.30402727 0 0 Z " fill="#285B8A" transform="translate(308.234375,235.06640625)"/>
<path d="M0 0 C2.38301865 1.26004747 4.0556867 2.8674183 5.765625 4.93359375 C4.115625 6.58359375 2.465625 8.23359375 0.765625 9.93359375 C0.12625 9.60359375 -0.513125 9.27359375 -1.171875 8.93359375 C-5.56120477 7.50034321 -10.98335271 6.80808261 -15.234375 8.93359375 C-14.904375 10.58359375 -14.574375 12.23359375 -14.234375 13.93359375 C-13.20957031 14.22492188 -12.18476563 14.51625 -11.12890625 14.81640625 C-9.76790437 15.22939992 -8.40724479 15.64352278 -7.046875 16.05859375 C-6.37333984 16.24679688 -5.69980469 16.435 -5.00585938 16.62890625 C0.25593678 18.27161334 2.70547277 20.32009429 5.765625 24.93359375 C6.7193838 28.08259628 6.55127004 30.74675188 5.765625 33.93359375 C3.07076828 38.64513132 -0.03991926 41.31552457 -5.234375 42.93359375 C-13.83519949 43.99198537 -20.18179182 43.03623791 -27.234375 37.93359375 C-26.54058989 34.67347733 -25.77543509 33.14321122 -23.234375 30.93359375 C-17.484375 32.80859375 -17.484375 32.80859375 -15.234375 33.93359375 C-13.31937197 34.09258229 -13.31937197 34.09258229 -11.234375 34.05859375 C-10.533125 34.06117188 -9.831875 34.06375 -9.109375 34.06640625 C-7.14283725 34.04736611 -7.14283725 34.04736611 -5.234375 32.93359375 C-4.9841593 30.01725246 -4.9841593 30.01725246 -5.234375 26.93359375 C-8.23341665 24.93423265 -9.59848801 24.57770577 -13.046875 24.05859375 C-17.74523037 23.18751181 -20.55512598 21.96897419 -24.234375 18.93359375 C-26.72040289 15.20455191 -26.74310861 12.24935053 -26.234375 7.93359375 C-24.54915918 3.10264172 -21.01023176 1.12818775 -16.6328125 -1.1171875 C-10.87706882 -3.39511212 -5.6002194 -2.30402727 0 0 Z " fill="#285B8A" transform="translate(43.234375,235.06640625)"/>
<path d="M0 0 C4.43041256 2.13609177 7.16159481 4.40398702 9 9 C9.80323403 14.92385095 9.06972436 19.7814686 6 25 C2.50678957 28.32280992 -0.29457208 29.28064922 -5 29.5 C-9.69606784 29.28814732 -12.47905697 28.26331306 -16 25 C-19.53100394 20.05659448 -19.87011862 14.88047201 -19 9 C-14.58994451 0.337391 -9.2384201 -1.20501132 0 0 Z " fill="#FBFBFC" transform="translate(166,185)"/>
<path d="M0 0 C12.87 0 25.74 0 39 0 C39 2.64 39 5.28 39 8 C34.05 8 29.1 8 24 8 C24 20.21 24 32.42 24 45 C21.03 45 18.06 45 15 45 C15 32.79 15 20.58 15 8 C10.05 8 5.1 8 0 8 C0 5.36 0 2.72 0 0 Z " fill="#242258" transform="translate(46,177)"/>
<path d="M0 0 C3.79853672 1.7956719 5.52011124 3.29616315 7.875 6.75 C9.2361704 10.68227005 9.74677599 13.88862888 9 18 C6.30455136 23.10209922 3.4785689 26.17381037 -2 28 C-6.19171681 28.39544498 -8.48075302 28.26960901 -12.25 26.3125 C-15.78552723 23.33944301 -17.68149054 21.34753271 -18.31640625 16.66796875 C-18.58321356 10.92730814 -17.91581688 7.45968033 -14 3 C-9.63517964 -0.88190407 -5.61378209 -0.78929954 0 0 Z " fill="#F9FAFB" transform="translate(259,242)"/>
<path d="M0 0 C2.43816585 -0.0809723 4.87364384 -0.14046972 7.3125 -0.1875 C8.34793945 -0.22520508 8.34793945 -0.22520508 9.40429688 -0.26367188 C14.50103138 -0.33753759 14.50103138 -0.33753759 16.9921875 1.34765625 C18 3 18 3 17.8125 5.625 C17 8 17 8 15 9 C12.44842345 9.0716735 9.92527029 9.09308442 7.375 9.0625 C6.66859375 9.05798828 5.9621875 9.05347656 5.234375 9.04882812 C3.48954725 9.03703875 1.744763 9.01910324 0 9 C0 6.03 0 3.06 0 0 Z " fill="#FBFCFD" transform="translate(201,242)"/>
<path d="M0 0 C3.4375 0.75 3.4375 0.75 5.4375 2.75 C5.9042512 6.32842586 5.83978636 8.12243328 3.875 11.1875 C1.4375 12.75 1.4375 12.75 -2.1875 12.6875 C-5.5625 11.75 -5.5625 11.75 -7.5625 8.75 C-7.375 5.1875 -7.375 5.1875 -6.5625 1.75 C-3.5625 -0.25 -3.5625 -0.25 0 0 Z " fill="#FDF6F7" transform="translate(109.5625,58.25)"/>
<path d="M0 0 C2.7912125 1.98322993 3.82597224 3.12986121 4.5 6.5 C3.82597224 9.87013879 2.7912125 11.01677007 0 13 C-3.17235276 13.45319325 -5.06487736 13.52990283 -7.875 11.9375 C-9.64273274 8.8930714 -9.36823916 6.4368988 -9 3 C-6.84532543 -0.71082843 -4.00794956 -0.57256422 0 0 Z " fill="#FCF5F5" transform="translate(191,25)"/>
<path d="M0 0 C2.37466282 2.06825471 2.88685647 3.43428235 3.5 6.5 C3 9 3 9 0.875 11.375 C-2 13 -2 13 -5.1875 12.9375 C-8 12 -8 12 -10 9 C-10.32162076 5.9124407 -10.48724515 3.85984439 -8.9375 1.125 C-5.85928089 -0.66235303 -3.47093932 -0.43386742 0 0 Z " fill="#FCF4F5" transform="translate(192,138)"/>
<path d="M0 0 C2 1.625 2 1.625 3 4 C2.92897215 7.4803645 2.61415498 9.29485909 0.3125 11.9375 C-2.86221916 13.39615475 -4.69878201 13.00471852 -8 12 C-10.31282587 8.53076119 -10.42478586 7.07794425 -10 3 C-7.72375139 -1.01690931 -4.20725277 -0.5259066 0 0 Z " fill="#FCF5F5" transform="translate(225,105)"/>
<path d="M0 0 C2.7912125 1.98322993 3.82597224 3.12986121 4.5 6.5 C3.82597224 9.87013879 2.7912125 11.01677007 0 13 C-3.17235276 13.45319325 -5.06487736 13.52990283 -7.875 11.9375 C-9.64273274 8.8930714 -9.36823916 6.4368988 -9 3 C-6.84532543 -0.71082843 -4.00794956 -0.57256422 0 0 Z " fill="#FCF6F6" transform="translate(224,58)"/>
<path d="M0 0 C3.4375 0.8125 3.4375 0.8125 5.4375 3.8125 C5.25 7.375 5.25 7.375 4.4375 10.8125 C1.4375 12.8125 1.4375 12.8125 -2.125 12.625 C-5.5625 11.8125 -5.5625 11.8125 -7.5625 8.8125 C-7.375 5.25 -7.375 5.25 -6.5625 1.8125 C-3.5625 -0.1875 -3.5625 -0.1875 0 0 Z " fill="#FDF7F8" transform="translate(142.5625,25.1875)"/>
<path d="M0 0 C1.9375 1.125 1.9375 1.125 3 3 C3.54624158 6.66762206 3.47898298 8.3258758 1.3125 11.375 C-1 13 -1 13 -3.5 13.5625 C-6 13 -6 13 -8.3125 10.8125 C-10.1320144 7.77997601 -10.63606137 6.45290456 -10 3 C-7.66004009 -0.99169632 -4.2277022 -0.45296809 0 0 Z " fill="#FDF6F7" transform="translate(112,105)"/>
<path d="M0 0 C3.5625 0.3125 3.5625 0.3125 5.5 1.4375 C7.06672245 4.20230433 6.95226435 6.19438517 6.5625 9.3125 C5.5 11.1875 5.5 11.1875 3.5625 12.3125 C0.0625 12.75 0.0625 12.75 -3.4375 12.3125 C-5.4375 10.6875 -5.4375 10.6875 -6.4375 8.3125 C-6.12371717 3.0827861 -5.61102633 0.5100933 0 0 Z " fill="#FEFBFB" transform="translate(141.4375,137.6875)"/>
<path d="M0 0 C2.93280794 2.47902104 3.93871822 4.969262 5.1875 8.5625 C5.53167969 9.53316406 5.87585938 10.50382813 6.23046875 11.50390625 C7 14 7 14 7 16 C2.71 16 -1.58 16 -6 16 C-4.3967597 10.35048657 -2.85403778 5.16444932 0 0 Z " fill="#F0F0F3" transform="translate(261,190)"/>
</svg>
